<svg width="165" height="29" viewBox="0 0 165 29" fill="none" xmlns="http://www.w3.org/2000/svg">
<g id="Group">
<path id="Vector" d="M0 24.9965C0 26.3392 0.987978 27.7416 3.50281 27.7416H14.3405C16.4662 27.7416 17.5739 26.9061 17.5739 24.9069V24.6086C17.5739 22.5199 16.4662 21.7739 14.3405 21.7739H9.49049L15.7776 15.2989C16.7955 14.2546 17.4841 13.5683 17.4841 11.4796V11.1812C17.4841 9.83845 16.4961 8.43604 13.9813 8.43604H3.50281C1.40712 8.43604 0.299384 9.27152 0.299384 11.2707V11.5691C0.299384 13.6578 1.40712 14.4038 3.50281 14.4038H7.81396L1.7065 20.8787C0.748471 21.8932 0 22.6094 0 24.6981V24.9965Z" fill="black"/>
<path id="Vector_2" d="M19.9695 27.0253C21.167 27.7414 23.1729 28.189 26.2267 28.189C32.6335 28.189 35.6273 25.8914 35.6273 21.3858C35.6273 17.9245 32.843 16.2536 28.8013 15.3883C27.0649 15.0302 25.6878 15.0004 25.6878 14.3439C25.6878 13.7471 26.1967 13.5084 27.6338 13.5084C29.2804 13.5084 31.3162 14.2842 32.7233 15.3584C32.873 15.4778 35.1782 13.7173 35.1782 11.7778C35.1782 10.7036 34.6394 9.7786 33.4119 9.09231C32.1844 8.40603 30.2983 7.98828 27.5439 7.98828C21.7059 7.98828 18.7121 10.3754 18.7121 14.6423C18.7121 18.7003 22.0652 20.0431 25.3884 20.6995C27.035 21.0277 28.2325 21.0874 28.2325 21.8334C28.2325 22.4302 27.6936 22.6689 26.2267 22.6689C24.4303 22.6689 21.8556 21.714 20.5384 20.789C20.2988 20.61 18.293 22.5197 18.293 24.1608C18.293 25.2648 18.742 26.2793 19.9695 27.0253Z" fill="black"/>
<path id="Vector_3" d="M26.9448 7.33194C29.3399 6.73516 32.3937 4.94485 32.3937 2.76663C32.3937 1.57308 31.4656 0.707764 30.1483 0.707764C28.7412 0.707764 27.4538 1.69244 26.9448 3.15453C26.4958 1.8118 25.2683 0.707764 23.7714 0.707764C22.4242 0.707764 21.4961 1.57308 21.4961 2.76663C21.4961 4.94485 24.46 6.67549 26.9448 7.33194Z" fill="#0E6973"/>
<path id="Vector_4" d="M40.1188 27.8908H41.1966C43.2923 27.8908 44.4 26.6973 44.4 24.519V23.0271H46.2263C51.9146 23.0271 54.9383 20.6699 54.9383 15.836C54.9383 10.9126 51.7948 8.43604 45.897 8.43604H40.7475C38.3225 8.43604 37.0352 9.83845 37.0352 12.4941V24.519C37.0352 26.7271 38.1728 27.8908 40.1188 27.8908ZM45.8371 17.8054H44.2803V13.8368H45.6874C47.1244 13.8368 47.8729 14.553 47.8729 15.836C47.8729 17.0892 47.1544 17.8054 45.8371 17.8054Z" fill="#118C8C"/>
<path id="Vector_5" d="M59.486 27.8908H60.5338C62.6295 27.8908 63.7373 26.7271 63.7373 24.519V22.132H64.0366L65.9527 24.7578C67.4796 26.8763 68.5573 27.8908 70.9225 27.8908C74.066 27.8908 75.2935 25.7424 75.0839 25.4739L71.162 20.5803L71.5512 20.4013C73.6768 19.3868 74.7546 17.4771 74.7546 15.0304C74.7546 10.7634 72.0002 8.43604 66.3119 8.43604H60.1147C57.6897 8.43604 56.4023 9.80861 56.4023 12.4941V23.594C56.4023 26.2795 57.4801 27.8908 59.486 27.8908ZM63.6175 17.3578V13.8667H65.3839C66.8209 13.8667 67.4496 14.4634 67.4496 15.6271C67.4496 16.761 66.761 17.3578 65.4138 17.3578H63.6175Z" fill="#118C8C"/>
<path id="Vector_6" d="M86.5826 28.189C92.6302 28.189 96.9713 23.9519 96.9713 18.0737C96.9713 12.2254 92.6302 7.98828 86.5826 7.98828C80.5351 7.98828 76.1641 12.2254 76.1641 18.0737C76.1641 23.9519 80.5051 28.189 86.5826 28.189ZM86.5826 21.6544C84.5768 21.6544 83.3493 20.2818 83.3493 18.0737C83.3493 15.7762 84.5468 14.4633 86.5826 14.4633C88.5586 14.4633 89.786 15.8657 89.786 18.0737C89.786 20.2818 88.5586 21.6544 86.5826 21.6544Z" fill="#118C8C"/>
<path id="Vector_7" d="M98.5859 23.7432C98.5859 25.9513 100.382 27.7416 102.658 27.7416H107.567C113.825 27.7416 117.866 23.8924 117.866 17.9844C117.866 12.136 113.944 8.43604 107.657 8.43604H102.358C100.173 8.43604 98.5859 9.80861 98.5859 12.4941V23.7432ZM107.328 21.565H105.831V14.6126H107.418C109.364 14.6126 110.681 15.7763 110.681 17.9844C110.681 20.2521 109.244 21.565 107.328 21.565Z" fill="#0E6973"/>
<path id="Vector_8" d="M128.017 7.33194C130.412 6.73517 133.466 4.94485 133.466 2.76663C133.466 1.57308 132.538 0.707764 131.22 0.707764C129.813 0.707764 128.526 1.69244 128.017 3.15453C127.568 1.8118 126.34 0.707764 124.843 0.707764C123.496 0.707764 122.568 1.57308 122.568 2.76663C122.568 4.94485 125.532 6.67549 128.017 7.33194ZM123.197 27.7415H133.196C135.531 27.7415 136.579 26.8464 136.579 24.8472V24.698C136.579 22.8182 135.531 22.1319 133.196 22.1319H126.819V20.6101H130.502C132.897 20.6101 133.885 19.8343 133.885 17.9545V17.865C133.885 16.1045 132.927 15.3884 130.502 15.3884H126.819V14.1053H133.076C135.412 14.1053 136.459 13.3593 136.459 11.3601V11.211C136.459 9.30129 135.412 8.43596 133.076 8.43596H123.197C120.772 8.43596 119.484 9.80854 119.484 12.494V23.7432C119.484 26.4286 120.772 27.7415 123.197 27.7415Z" fill="#0E6973"/>
<path id="Vector_9" d="M142.868 24.519C142.868 26.7271 143.886 27.8908 145.892 27.8908H146.94C149.035 27.8908 150.203 26.7271 150.203 24.519V14.732H152.388C154.664 14.732 155.771 13.628 155.771 11.5393V11.4497C155.771 9.45055 154.664 8.43604 152.388 8.43604H140.563C138.347 8.43604 137.18 9.45055 137.18 11.4497V11.5393C137.18 13.628 138.347 14.732 140.563 14.732H142.868V24.519Z" fill="#0E6973"/>
<path id="Vector_10" d="M157.148 24.5191C157.148 26.7271 158.226 27.8908 160.232 27.8908H161.28C163.376 27.8908 164.483 26.7271 164.483 24.5191V11.6586C164.483 9.3909 163.376 8.28687 161.28 8.28687H160.232C158.226 8.28687 157.148 9.3909 157.148 11.6586V24.5191Z" fill="#0E6973"/>
</g>
</svg>
