<svg width="162" height="14" viewBox="0 0 162 14" fill="none" xmlns="http://www.w3.org/2000/svg">
<g id="Logo/Flashtones">
<g id="Logo/Flashtones_2">
<path d="M0 13.2359V0.763679H8.03893V3.4022H2.77941V6.04131H7.40545V8.57442H2.79692V13.2359H0Z" fill="#D9B770"/>
<path d="M15.2656 13.2359V0.763679H18.0451V10.5799H23.4276V13.2359H15.2656Z" fill="#D9B770"/>
<path d="M34.0844 8.16972H37.1102L35.6153 3.8599L34.0844 8.16972ZM37.9895 10.7028H33.1696L32.2723 13.2359H29.3525L34.0495 0.763679H37.2686L41.9126 13.2359H38.8868L37.9895 10.7028Z" fill="#D9B770"/>
<path d="M54.7852 4.52816C54.6973 3.94804 54.2221 2.96285 52.7092 2.96285C51.6714 2.96285 51.0029 3.61336 51.0029 4.29985C51.0029 4.89784 51.3727 5.33756 52.2341 5.49596L53.9053 5.81216C56.2801 6.25187 57.5116 7.78265 57.5116 9.55937C57.5116 11.5119 55.8759 13.5 52.9026 13.5C49.4547 13.5 47.9772 11.2656 47.8013 9.50698L50.3524 8.89087C50.4573 10.0346 51.2318 11.0373 52.9381 11.0373C54.0288 11.0373 54.6973 10.5092 54.6973 9.73528C54.6973 9.10168 54.187 8.64458 53.3603 8.48618L51.6535 8.16997C49.543 7.76527 48.2585 6.35776 48.2585 4.51066C48.2585 2.15393 50.3344 0.500119 52.7267 0.500119C55.8404 0.500119 57.019 2.36473 57.2828 3.82465L54.7852 4.52816Z" fill="#D9B770"/>
<path d="M72.443 13.2359V8.27513H67.4646V13.2359H64.6852V0.763679H67.4646V5.654H72.443V0.763679H75.2399V13.2359H72.443Z" fill="#D9B770"/>
<path d="M88.7983 3.41995V13.2361H86.0189V3.41995H82.1838V0.763923H92.6509V3.41995H88.7983Z" fill="#D9B770"/>
<path d="M105.102 10.7554C106.826 10.7554 108.691 9.59426 108.691 6.99124C108.691 4.38762 106.826 3.20902 105.102 3.20902C103.36 3.20902 101.496 4.38762 101.496 6.99124C101.496 9.59426 103.36 10.7554 105.102 10.7554ZM105.102 0.5C108.603 0.5 111.575 3.05062 111.575 7.00863C111.575 10.9493 108.603 13.4999 105.102 13.4999C101.584 13.4999 98.6112 10.9493 98.6112 7.00863C98.6112 3.05062 101.584 0.5 105.102 0.5Z" fill="#D9B770"/>
<path d="M126.735 13.2359L121.598 5.0385V13.2359H118.836V0.763679H122.213L126.892 8.34551V0.763679H129.672V13.2359H126.735Z" fill="#D9B770"/>
<path d="M137.637 13.2359V0.763679H145.536V3.38469H140.416V5.75952H145.06V8.20462H140.416V10.5973H145.553V13.2359H137.637Z" fill="#D9B770"/>
<path d="M159.253 4.52816C159.165 3.94804 158.69 2.96285 157.177 2.96285C156.139 2.96285 155.471 3.61336 155.471 4.29985C155.471 4.89784 155.841 5.33756 156.702 5.49596L158.373 5.81216C160.748 6.25187 161.98 7.78265 161.98 9.55937C161.98 11.5119 160.344 13.5 157.371 13.5C153.923 13.5 152.445 11.2656 152.269 9.50698L154.82 8.89087C154.925 10.0346 155.7 11.0373 157.406 11.0373C158.497 11.0373 159.165 10.5092 159.165 9.73528C159.165 9.10168 158.655 8.64458 157.828 8.48618L156.121 8.16997C154.011 7.76527 152.726 6.35776 152.726 4.51066C152.726 2.15393 154.802 0.500119 157.195 0.500119C160.308 0.500119 161.487 2.36473 161.751 3.82465L159.253 4.52816Z" fill="#D9B770"/>
</g>
</g>
</svg>
