<?xml version="1.0" encoding="UTF-8" standalone="no"?>
<!DOCTYPE svg PUBLIC "-//W3C//DTD SVG 1.1//EN" "http://www.w3.org/Graphics/SVG/1.1/DTD/svg11.dtd">
<svg width="100%" height="100%" viewBox="0 0 2048 2048" version="1.1" xmlns="http://www.w3.org/2000/svg" xmlns:xlink="http://www.w3.org/1999/xlink" xml:space="preserve" xmlns:serif="http://www.serif.com/" style="fill-rule:evenodd;clip-rule:evenodd;stroke-linejoin:round;stroke-miterlimit:2;">
    <g transform="matrix(0.99184,-0.99184,0.99184,0.99184,-1007.29,1024)">
        <path d="M1024,0C1024,565.161 1482.84,1024 2048,1024C1482.84,1024 1024,1482.84 1024,2048C1024,1482.84 565.161,1024 0,1024C565.161,1024 1024,565.161 1024,0Z" style="fill:rgb(244,244,244);"/>
        <g transform="matrix(0.733555,0,0,0.733555,272.84,272.84)">
            <path d="M1024,0C1024,565.161 1482.84,1024 2048,1024C1482.84,1024 1024,1482.84 1024,2048C1024,1482.84 565.161,1024 0,1024C565.161,1024 1024,565.161 1024,0Z" style="fill:rgb(250,250,250);"/>
        </g>
        <g transform="matrix(0.480982,0,0,0.480982,531.474,531.474)">
            <path d="M1024,0C1024,565.161 1482.84,1024 2048,1024C1482.84,1024 1024,1482.84 1024,2048C1024,1482.84 565.161,1024 0,1024C565.161,1024 1024,565.161 1024,0Z" style="fill:white;"/>
        </g>
    </g>
</svg>
