<?xml version="1.0" encoding="UTF-8"?>
<svg id="Layer_1" data-name="Layer 1" xmlns="http://www.w3.org/2000/svg" viewBox="0 0 1000 1000">
  <defs>
    <style>
      .cls-1 {
        fill: #e96224;
      }
    </style>
  </defs>
  <path class="cls-1" d="M983.88,166.55c0-94.59-58.62-150.23-155.84-150.23H171.77C73.12,16.32,14.5,71.96,14.5,167.94V841.19c1.43,90.42,60.05,147.45,152.99,147.45H829.47c95.79,0,154.41-55.64,154.41-148.84,1.43-223.95,1.43-449.3,0-673.25Zm-817.83,19.47c0,158.58,0,318.54-1.43,477.12,0,13.91-7.15,31.99-17.16,41.73-31.45,37.56-67.2,72.33-101.51,107.11-1.43-1.39-4.29-1.39-7.15-1.39V169.33c0-83.46,47.18-129.36,134.4-129.36,188.73,0,376.03,0,564.76,6.96-20.02,2.78-40.03,6.96-60.05,6.96-125.82,1.39-251.64,0-376.03,1.39-85.79-1.39-135.83,47.29-135.83,130.76Zm633.39,250.38c-1.43,82.07-1.43,165.53-1.43,248.99,0,65.38-38.6,102.94-104.37,102.94H294.73c-62.91,0-102.94-38.95-102.94-100.15V181.85c0-59.81,37.17-100.15,97.22-101.54,138.69-1.39,275.94-1.39,413.2,0,60.05,1.39,97.22,41.73,97.22,100.15v255.95Z"/>
  <path class="cls-1" d="M343.1,206.43c0-3.85-1.1-4.95-4.95-4.95h-68.8c-22.56,0-30.82-17.06-30.82-34.67s8.26-34.67,30.82-34.67h219.04c22.57,0,30.82,17.61,30.82,34.67s-8.26,34.67-30.82,34.67h-68.8c-3.3,0-4.95,1.1-4.95,4.95V487.11c0,24.22-18.71,30.27-35.77,30.27s-35.77-6.05-35.77-30.27V206.43Z"/>
  <path class="cls-1" d="M616.07,734.91c-36.06,0-72.66-5.92-101.72-40.36-24.76-29.6-31.75-85.57-31.75-149.08s8.61-121.63,31.75-149.08c29.06-33.91,61.89-40.36,101.72-40.36,37.14,0,70.5,9.15,94.72,29.06,9.69,8.07,18.3,15.07,18.3,29.6,0,16.15-17.76,34.98-34.44,34.98-7.53,0-12.92-1.61-17.76-5.38-22.07-16.68-34.44-20.45-58.12-20.45-19.37,0-42.52,4.84-53.28,27.45-9.69,20.99-10.23,52.2-10.23,94.18s0,74.27,10.76,94.72c11.84,22.6,31.75,26.91,52.74,26.91,18.3,0,40.36-4.31,61.35-22.07,7-6.46,12.92-10.76,22.07-10.76,17.22,0,36.6,19.91,36.6,34.98,0,10.23-4.84,16.15-10.23,22.6-12.92,15.07-46.28,43.06-112.48,43.06Z"/>
</svg>